<?xml version="1.0" encoding="utf-8"?>
<!-- Generator: Adobe Illustrator 22.1.0, SVG Export Plug-In . SVG Version: 6.00 Build 0)  -->
<svg version="1.1" id="Слой_1" xmlns="http://www.w3.org/2000/svg" xmlns:xlink="http://www.w3.org/1999/xlink" x="0px" y="0px"
	 viewBox="0 0 288 285" style="enable-background:new 0 0 288 285;" xml:space="preserve">
<style type="text/css">
	.st0{opacity:0.1;fill:#32324C;}
	.st1{opacity:0.6;fill:#32324C;}
	.st2{opacity:0.4;fill:#32324C;}
	.st3{opacity:0.5;fill:#32324C;}
	.st4{fill:#32324C;}
	.st5{fill:#3555AF;}
	.st6{fill:#FFFFFF;}
	.st7{fill:#3986D7;}
	.st8{fill:#E63067;}
	.st9{fill:#C11C57;}
	.st10{fill:#FFAF82;}
	.st11{fill:#FFA378;}
	.st12{fill:#F88968;}
	.st13{fill:#920E08;}
	.st14{fill:#F85C66;}
</style>
<g>
	<ellipse class="st0" cx="136" cy="370.8" rx="61" ry="9.2"/>
	<g>
		<path class="st1" d="M220.2,262.4c-5.2,76-101,106.8-148.4,47.1c-9.7-12.2-12-41.6-9.5-57.1c10.1-62.5,42.1-68.9,18.2-108.4
			C56.6,104.6,54.4,32.8,120.4,33.4c66,0.6,23.5,106.1,69,135.7C210.2,182.5,222.9,222.9,220.2,262.4z"/>
		<path class="st2" d="M195.1,151.9c-4,1.4-8.4,0.1-11.1-3.2c-4.3-5.2-11.2-15.7-9.1-28c2.9-17.5,25.1-3.5,26.8,16.1
			C202.6,146.7,199,150.6,195.1,151.9z"/>
		<path class="st3" d="M171.6,106c-2.1-0.7-3.5-2.7-3.6-4.9c-0.1-3.5,0.4-10,5.2-14.4c6.8-6.3,11.5,6.6,5.9,15.2
			C176.3,106.2,173.6,106.6,171.6,106z"/>
		<path class="st3" d="M62.7,191.4c-2.2-0.3-3.9-2-4.4-4.1c-0.7-3.4-1.4-10,2.5-15.1c5.5-7.4,12.5,4.4,8.6,13.9
			C67.4,190.8,64.9,191.7,62.7,191.4z"/>
	</g>
	<g>
		<g>
			<g>
				<path class="st4" d="M105.9,193.1c0-12.8,3.1-21.4,3.1-21.4c20.6-1.3,53,0,53,0c0,0.1,0.1,0.2,0.1,0.4c0,0,2.2,9.3,1.4,21.1
					C143.5,205.5,124.2,204.7,105.9,193.1z"/>
			</g>
			<g>
				<g>
					<path class="st4" d="M163.6,193.1c0,0,4.8,68,4.3,83l4,79.1l-13.2-0.8c-2.3-40.8-10-59.3-7.6-77.8c-7.4-24.3-11.2-53.1-12.4-76
						C138.7,200.7,150.4,193.4,163.6,193.1z"/>
					<g>
						<g>
							<path class="st5" d="M158.2,353.8c0.4-5.2,5-8,9.8-6.7c4.6,1.3,5.2,9,5.2,9s5.7,5,6.9,14c0,0.2,0.1,0.4,0.1,0.6
								c0.2,1.7-1,3.2-2.6,3.4c-8.2,1.4-16.2,1.5-23.9,0.1c-1.6-0.3-2.7-1.8-2.5-3.5c0-0.1,0-0.1,0-0.2c0.5-3.9,1.6-11.2,6.4-13.9
								L158.2,353.8z"/>
							<g>
								<g>
									<g>
										<g>
											<path class="st6" d="M160.1,359.8l-0.4-1c0.3-0.1,7.1-3.1,12.1,0.2l-0.6,0.9C166.7,357,160.1,359.8,160.1,359.8z"/>
										</g>
									</g>
								</g>
								<g>
									<g>
										<g>
											<path class="st6" d="M160.9,359.7c-0.1,0.6-0.7,1.1-1.3,1c-0.6-0.1-1.1-0.7-1-1.3c0.1-0.6,0.7-1.1,1.3-1
												C160.6,358.5,161,359.1,160.9,359.7z"/>
										</g>
									</g>
								</g>
								<g>
									<g>
										<g>
											<path class="st6" d="M172.6,359.4c-0.1,0.6-0.7,1.1-1.3,1c-0.6-0.1-1.1-0.7-1-1.3c0.1-0.6,0.7-1.1,1.3-1
												C172.3,358.2,172.8,358.8,172.6,359.4z"/>
										</g>
									</g>
								</g>
							</g>
							<g>
								<g>
									<g>
										<g>
											<path class="st6" d="M160.2,356.9l-0.4-1c0.3-0.1,7.1-3.1,12.1,0.2l-0.6,0.9C166.8,354.1,160.2,356.9,160.2,356.9z"/>
										</g>
									</g>
								</g>
								<g>
									<g>
										<g>
											<path class="st6" d="M161,356.8c-0.1,0.6-0.7,1.1-1.3,1c-0.6-0.1-1.1-0.7-1-1.3c0.1-0.6,0.7-1.1,1.3-1
												C160.7,355.5,161.1,356.1,161,356.8z"/>
										</g>
									</g>
								</g>
								<g>
									<g>
										<g>
											<path class="st6" d="M172.8,356.5c-0.1,0.6-0.7,1.1-1.3,1c-0.6-0.1-1.1-0.7-1-1.3c0.1-0.6,0.7-1.1,1.3-1
												C172.4,355.3,172.9,355.9,172.8,356.5z"/>
										</g>
									</g>
								</g>
							</g>
							<g>
								<g>
									<g>
										<g>
											<path class="st6" d="M160.1,362.8l-0.4-1c0.3-0.1,7.1-3.1,12.1,0.2l-0.6,0.9C166.7,359.9,160.1,362.7,160.1,362.8z"/>
										</g>
									</g>
								</g>
								<g>
									<g>
										<g>
											<path class="st6" d="M160.9,362.6c-0.1,0.6-0.7,1.1-1.3,1c-0.6-0.1-1.1-0.7-1-1.3s0.7-1.1,1.3-1
												C160.6,361.4,161,362,160.9,362.6z"/>
										</g>
									</g>
								</g>
								<g>
									<g>
										<g>
											<path class="st6" d="M172.6,362.3c-0.1,0.6-0.7,1.1-1.3,1c-0.6-0.1-1.1-0.7-1-1.3c0.1-0.6,0.7-1.1,1.3-1
												C172.3,361.1,172.8,361.7,172.6,362.3z"/>
										</g>
									</g>
								</g>
							</g>
							<g>
								<g>
									<g>
										<path class="st6" d="M168.7,350.5c0,0-3.5-1.2-6.5,0.3c-0.3,0.6-0.3,1.5,0,2.4c0,0,4-0.6,6.6-0.2
											C168.7,353,169.2,351.5,168.7,350.5z"/>
									</g>
								</g>
							</g>
							<path class="st7" d="M177.6,374.1c-8.2,1.4-16.2,1.5-23.9,0.1c-1.6-0.3-2.7-1.8-2.5-3.5c0-0.1,0-0.1,0-0.2
								c4.8,1.4,16.1,3.5,29-0.5c0,0.2,0.1,0.4,0.1,0.6C180.3,372.3,179.2,373.8,177.6,374.1z"/>
						</g>
					</g>
				</g>
			</g>
			<g>
				<g>
					<path class="st4" d="M105.9,193.1c0,0-4.4,68-3.8,83l-4,79.1l13.2-0.8c0.8-30.9,11.1-55.8,7.6-77.8c6.6-21.3,10-50.6,11.3-76
						C130.2,200.7,119.1,193.4,105.9,193.1z"/>
					<g>
						<g>
							<path class="st5" d="M111.8,353.8c-0.4-5.2-5-8-9.8-6.7c-4.6,1.3-5.2,9-5.2,9s-5.7,5-6.9,14c0,0.2-0.1,0.4-0.1,0.6
								c-0.2,1.7,1,3.2,2.6,3.4c8.2,1.4,16.2,1.5,23.9,0.1c1.6-0.3,2.7-1.8,2.5-3.5c0-0.1,0-0.1,0-0.2c-0.5-3.9-1.6-11.2-6.4-13.9
								L111.8,353.8z"/>
							<g>
								<g>
									<g>
										<g>
											<path class="st6" d="M109.9,359.8l0.4-1c-0.3-0.1-7.1-3.1-12.1,0.2l0.6,0.9C103.3,357,109.9,359.8,109.9,359.8z"/>
										</g>
									</g>
								</g>
								<g>
									<g>
										<g>
											<path class="st6" d="M109.1,359.7c0.1,0.6,0.7,1.1,1.3,1c0.6-0.1,1.1-0.7,1-1.3c-0.1-0.6-0.7-1.1-1.3-1
												C109.4,358.5,109,359.1,109.1,359.7z"/>
										</g>
									</g>
								</g>
								<g>
									<g>
										<g>
											<path class="st6" d="M97.3,359.4c0.1,0.6,0.7,1.1,1.3,1c0.6-0.1,1.1-0.7,1-1.3c-0.1-0.6-0.7-1.1-1.3-1
												C97.7,358.2,97.2,358.8,97.3,359.4z"/>
										</g>
									</g>
								</g>
							</g>
							<g>
								<g>
									<g>
										<g>
											<path class="st6" d="M109.8,356.9l0.4-1c-0.3-0.1-7.1-3.1-12.1,0.2l0.6,0.9C103.2,354.1,109.7,356.9,109.8,356.9z"/>
										</g>
									</g>
								</g>
								<g>
									<g>
										<g>
											<path class="st6" d="M108.9,356.8c0.1,0.6,0.7,1.1,1.3,1c0.6-0.1,1.1-0.7,1-1.3c-0.1-0.6-0.7-1.1-1.3-1
												C109.3,355.5,108.8,356.1,108.9,356.8z"/>
										</g>
									</g>
								</g>
								<g>
									<g>
										<g>
											<path class="st6" d="M97.2,356.5c0.1,0.6,0.7,1.1,1.3,1c0.6-0.1,1.1-0.7,1-1.3c-0.1-0.6-0.7-1.1-1.3-1
												C97.5,355.3,97.1,355.9,97.2,356.5z"/>
										</g>
									</g>
								</g>
							</g>
							<g>
								<g>
									<g>
										<g>
											<path class="st6" d="M109.9,362.8l0.4-1c-0.3-0.1-7.1-3.1-12.1,0.2l0.6,0.9C103.3,359.9,109.9,362.7,109.9,362.8z"/>
										</g>
									</g>
								</g>
								<g>
									<g>
										<g>
											<path class="st6" d="M109.1,362.6c0.1,0.6,0.7,1.1,1.3,1c0.6-0.1,1.1-0.7,1-1.3c-0.1-0.6-0.7-1.1-1.3-1
												C109.4,361.4,109,362,109.1,362.6z"/>
										</g>
									</g>
								</g>
								<g>
									<g>
										<g>
											<path class="st6" d="M97.3,362.3c0.1,0.6,0.7,1.1,1.3,1c0.6-0.1,1.1-0.7,1-1.3c-0.1-0.6-0.7-1.1-1.3-1
												C97.7,361.1,97.2,361.7,97.3,362.3z"/>
										</g>
									</g>
								</g>
							</g>
							<g>
								<g>
									<g>
										<path class="st6" d="M101.3,350.5c0,0,3.5-1.2,6.5,0.3c0.3,0.6,0.3,1.5,0,2.4c0,0-4-0.6-6.6-0.2
											C101.2,353,100.8,351.5,101.3,350.5z"/>
									</g>
								</g>
							</g>
							<path class="st7" d="M92.4,374.1c8.2,1.4,16.2,1.5,23.9,0.1c1.6-0.3,2.7-1.8,2.5-3.5c0-0.1,0-0.1,0-0.2
								c-4.8,1.4-16.1,3.5-29-0.5c0,0.2-0.1,0.4-0.1,0.6C89.6,372.3,90.8,373.8,92.4,374.1z"/>
						</g>
					</g>
				</g>
			</g>
		</g>
		<g>
			<path class="st8" d="M156.5,132.8l6.5,39.7c0,0-13.1,6.7-28.2,6.7c-16,0-26.8-6.7-26.8-6.7l6.5-39.7l-0.9-17.3
				c-5.2-3.9-3.4-14.5-3.4-14.5L108,85l20.5-8.7l13.2-0.1l21.4,8l-2.3,16.9c0,0,2.2,9.8-2.8,14.4L156.5,132.8z"/>
			<path class="st9" d="M153.8,117.1c0,0-14.5,10.3-35.4,0.6C118.4,117.7,137.9,123,153.8,117.1"/>
		</g>
		<g>
			<g>
				<g>
					<g>
						<path class="st10" d="M87.1,196.3c0,0,1.1,3.8,2.4,6.6c1.3,2.8,0.4,4.9,1.2,7.4c0.8,2.5-2.2,2.3-2.8-0.3
							c-0.6-2.6-0.3-3.9-0.9-3.9c-0.5-0.1-2.1,6.3-2.3,8.1c-0.2,1.8,0.2,6.4-0.5,7.1c-0.7,0.7-2.3-1.9-1.8-6.6
							c0.5-4.8,0.1-4.7,0.1-4.7s-0.5,1.9-0.9,3.8c-0.5,2-0.5,4.4-0.4,5.8c0.1,1.4-1.3,2-1.7,1.3c-0.4-0.7-1.1-5.5-0.5-7.3
							c0.6-1.9,1.2-5,1.2-5s-1.8,4.3-2.1,5.4c-0.3,1.1,0.2,5.3-0.8,6.1c-0.4,0.3-1.7-0.1-1.5-6.1c0,0,0.4-2.9,1.1-4.7
							c0,0-1,1.4-1.5,3.2c-0.4,1.6-0.7,3.3-0.8,4.9c-0.1,1.6-1.5,1.4-1.5-1.5c0-2.9,0.5-6,1.3-7.5c0.8-1.5,2-10.4,4.4-13.7
							L87.1,196.3z"/>
					</g>
				</g>
				<g>
					<path class="st8" d="M114,100.9c0,0-7.1,32.7-12.8,43.7c0,0-2.9,14.4-13.9,52.3c0,0-5.7,2.3-9.1-2.1c0,0,6.1-41.8,9.3-55.1
						c0,0,10.3-46.9,20.5-54.7C108,85,113.3,90.9,114,100.9z"/>
				</g>
			</g>
		</g>
		<g>
			<g>
				<g>
					<g>
						<path class="st10" d="M183.9,196.3c0,0-1.1,3.8-2.4,6.6c-1.3,2.8-0.4,4.9-1.2,7.4c-0.8,2.5,2.2,2.3,2.8-0.3
							c0.6-2.6,0.3-3.9,0.9-3.9c0.5-0.1,2.1,6.3,2.3,8.1c0.2,1.8-0.2,6.4,0.5,7.1c0.7,0.7,2.3-1.9,1.8-6.6c-0.5-4.8-0.1-4.7-0.1-4.7
							s0.5,1.9,0.9,3.8c0.5,2,0.5,4.4,0.4,5.8c-0.1,1.4,1.3,2,1.7,1.3c0.4-0.7,1.1-5.5,0.5-7.3c-0.6-1.9-1.2-5-1.2-5
							s1.8,4.3,2.1,5.4c0.3,1.1-0.2,5.3,0.8,6.1c0.4,0.3,1.7-0.1,1.5-6.1c0,0-0.4-2.9-1.1-4.7c0,0,1,1.4,1.5,3.2
							c0.4,1.6,0.7,3.3,0.8,4.9c0.1,1.6,1.5,1.4,1.5-1.5c0-2.9-0.5-6-1.3-7.5c-0.8-1.5-2-10.4-4.4-13.7L183.9,196.3z"/>
					</g>
				</g>
				<g>
					<path class="st8" d="M157,100.9c0,0,6.8,31.7,12.6,42.7c0,0,3.2,15.4,14.1,53.3c0,0,5.7,2.3,9.1-2.1c0,0-5.3-41.6-8.5-54.9
						c0,0-13.7-47.3-21.2-55.8C163.1,84.1,157.8,90.9,157,100.9z"/>
				</g>
			</g>
		</g>
		<g>
			<g>
				<path class="st4" d="M164.8,48.2c1,2.1,2.1,4.3,3.2,6.6c3.4,7.4-3.6,8.3-3.6,8.3s3,5,0.1,9c-3,4-7.8,1.9-7.8,1.9
					s-1.3,2.2-5.6,2.5c-6.2,0.4-8.9-2.1-8.9-2.1l-6.7-1.2c-0.8,0.5-2.9,2.1-8.1,2.8c-4.7,0.6-8.5-1.9-8.5-1.9
					c-1.2,3.3-10.2,3.2-11.9-1.9c-1.6-4.8,0.4-6.8,0.6-7.1c-3.6,2.9-11.6-4.9-5.5-12.3c2.5-3,3.9-4.4,4.7-5.9
					c-3.1,0.8-7.1-3-6.2-6.3c1.2-4.3,4.9-2.6,7.3-8.7c3.2-8.1,6.2-10.9,6.4-11.1c0,0,0,0,0,0c4.9-5.5,12.9-9.2,22.3-8.6
					c8,0.5,13.2,5,16.4,8.3c2.7,2.9,4.4,6.5,5.1,10.1c0.1,0.8,0.3,1.5,0.5,2.3c1.5,2.7,4.5,7.5,7.4,8.9
					C170,43.8,168.7,49,164.8,48.2z"/>
			</g>
			<g>
				<g>
					<g>
						<g>
							<path class="st11" d="M118.8,44.9c0,0-3.7-3.6-6.6-1.3c-3.5,2.8,0.2,12.8,6.3,11.8L118.8,44.9z"/>
						</g>
					</g>
				</g>
				<path class="st6" d="M116.9,54.9c0,1-0.8,1.8-1.8,1.8c-1,0-1.8-0.8-1.8-1.8c0-1,0.8-1.8,1.8-1.8C116.1,53.2,116.9,54,116.9,54.9
					z"/>
				<g>
					<path class="st12" d="M117.8,52.1c-0.5-1.5-1.9-4.6-5.4-6c0,0,3.7,3.5,4,6.3c0,0.4,0.3,0.6,0.7,0.6l0.1,0
						C117.7,53,118,52.5,117.8,52.1z"/>
				</g>
			</g>
			<g>
				<g>
					<g>
						<g>
							<path class="st11" d="M150,44.9c0,0,3.7-3.6,6.6-1.3c3.5,2.8-0.2,12.8-6.3,11.8L150,44.9z"/>
						</g>
					</g>
				</g>
				<path class="st6" d="M156.1,54.9c0,1-0.8,1.8-1.8,1.8c-1,0-1.8-0.8-1.8-1.8c0-1,0.8-1.8,1.8-1.8C155.3,53.2,156.1,54,156.1,54.9
					z"/>
				<g>
					<path class="st12" d="M151,52.1c0.5-1.5,1.9-4.6,5.4-6c0,0-3.7,3.5-4,6.3c0,0.4-0.3,0.6-0.7,0.6l-0.1,0
						C151.2,53,150.9,52.5,151,52.1z"/>
				</g>
			</g>
			<g>
				<g>
					<path class="st10" d="M142.5,66.4l-0.3,4.8l-0.3,6.1c0,0-1.2,2.3-6.6,2.3c-5.4,0-6.6-1.6-6.6-1.6l-0.2-2.7l-0.7-9H142.5z"/>
				</g>
				<g>
					<path class="st12" d="M142.5,66.4l-0.3,4.8c-2.3,1.7-7.6,5-13.8,4.1l-0.7-9H142.5z"/>
				</g>
			</g>
			<path class="st10" d="M154.3,41.1c0,0.6-0.1,1.2-0.2,1.8c-1.3,12.5-5.1,28.2-18.9,28.2c-13.4,0-18.7-14.9-20.5-27
				c-0.1-0.9-0.2-1.8-0.3-2.6c-1.2-11.6,7.7-21.7,19.4-21.9h1c8.6,0.1,15.8,5.7,18.4,13.4c0.3,0.9,0.6,1.9,0.7,2.8
				C154.3,37.5,154.4,39.3,154.3,41.1z"/>
			<g>
				<g>
					<g>
						<path class="st4" d="M126.8,46.3c-1.2,0.2-2.4-0.7-2.5-1.9c-0.1-0.4,0-0.9,0.2-1.2c-1.8-0.2-1.8-1.3-1.8-1.3
							c0.3,0.5,2.4,0.2,3.3,0.1h0c0.1,0,0.2,0,0.3,0c0,0,0,0,0,0c0,0,0.1,0,0.1,0c1.2-0.1,2.2,0.8,2.4,1.9
							C128.8,45,128,46.1,126.8,46.3z"/>
					</g>
				</g>
			</g>
			<g>
				<path class="st12" d="M135.1,65.7c-1.7-0.2-2.9-0.9-3-0.9c-0.2-0.1-0.3-0.5-0.2-0.7c0.1-0.2,0.5-0.3,0.7-0.2
					c0.1,0.1,3.5,1.9,6.6-0.1c0.2-0.2,0.6-0.1,0.7,0.2c0.2,0.2,0.1,0.6-0.2,0.7C138.1,65.7,136.5,65.8,135.1,65.7z"/>
			</g>
			<g>
				<path class="st12" d="M136.7,53.2H134c-0.3,0-0.5-0.2-0.5-0.5c0-0.3,0.2-0.5,0.5-0.5h2.7c0.1,0,0.1,0,0.1,0c0,0,0-0.1,0-0.1
					l-2.2-7.6c-0.1-0.3,0.1-0.6,0.4-0.7c0.3-0.1,0.6,0.1,0.7,0.4l2.2,7.6c0.1,0.4,0,0.8-0.2,1.1C137.4,53,137.1,53.2,136.7,53.2z"/>
			</g>
			<path class="st4" d="M129.7,36.3L129.7,36.3c0.1,0.6-0.4,1.2-1,1.2c-2.1,0.1-6.4,0.4-8.4,2.7c0,0,0.7-3.8,8.3-4.7
				C129.1,35.3,129.6,35.7,129.7,36.3z"/>
			<path class="st4" d="M140.4,36L140.4,36c-0.1,0.6,0.4,1.1,1,1.1c2.1,0,6.4,0.3,8.5,2.4c0,0-0.8-3.8-8.4-4.5
				C140.9,35,140.4,35.5,140.4,36z"/>
			<g>
				<g>
					<g>
						<path class="st4" d="M142.9,46c1.2,0.2,2.4-0.7,2.5-1.9c0.1-0.4,0-0.9-0.2-1.2c1.8-0.2,1.8-1.3,1.8-1.3
							c-0.3,0.5-2.4,0.2-3.3,0.1h0c-0.1,0-0.2,0-0.3,0c0,0,0,0,0,0c0,0-0.1,0-0.1,0c-1.2-0.1-2.2,0.8-2.4,1.9
							C140.8,44.7,141.6,45.9,142.9,46z"/>
					</g>
				</g>
			</g>
			<g>
				<path class="st13" d="M142.9,55.9c0,0.4,0,0.9-0.1,1.3c-0.2,1.4-0.8,2.6-1.7,3.6c-1.3,1.4-3.2,2.4-5.2,2.4c-2.1,0-4-0.8-5.3-2.2
					c-0.9-1-1.6-2.2-1.8-3.6c-0.1-0.4-0.1-0.8-0.1-1.3c0,0,0,0,0-0.1L142.9,55.9C142.9,55.9,142.9,55.9,142.9,55.9z"/>
				<path class="st6" d="M142.9,55.9c0,0.4,0,0.9-0.1,1.3l-14.1,0.2c-0.1-0.4-0.1-0.8-0.1-1.3c0,0,0,0,0-0.1L142.9,55.9
					C142.9,55.9,142.9,55.9,142.9,55.9z"/>
				<path class="st14" d="M141.1,60.8c-1.3,1.4-3.2,2.4-5.2,2.4c-2.1,0-4-0.8-5.3-2.2c1.2-1.3,3.1-2.1,5.3-2.1
					C137.9,58.8,139.8,59.6,141.1,60.8z"/>
			</g>
			<path class="st4" d="M151.9,35.7c-5.1-0.4-18.4-4.5-30.5-8.9c0,0,1.1,12.4-6.1,18.6c0,0-0.1-0.6-0.5-1.3
				c-0.1-0.9-0.2-1.8-0.3-2.6c-1.2-11.6,7.7-21.7,19.4-21.9h1c8.6,0.1,15.8,5.7,18.4,13.4c0.3,0.9,0.6,1.9,0.7,2.8
				C154,35.8,153.3,35.8,151.9,35.7z"/>
			<path class="st4" d="M154.3,41.1c0,0.6-0.1,1.2-0.2,1.8c-1.6-0.9-2.1-4.8-2.2-7.2c-0.1-1.2,0-2,0-2s0.1-0.4,1.4-0.7
				c0.3,0.9,0.6,1.9,0.7,2.8C154.3,37.5,154.4,39.3,154.3,41.1z"/>
		</g>
	</g>
</g>
</svg>
